<svg xmlns="http://www.w3.org/2000/svg" width="257" height="63" fill="none"><path fill="#000" d="M59 16.25V4h10.5v1.75h1.75v3.5H69.5V11h1.75v3.5H69.5v1.75H59Zm3.5-7h5.25v-3.5H62.5v3.5Zm0 5.25h5.25V11H62.5v3.5Zm14 1.75V14.5h-1.75v-1.75H73V7.5h1.75V5.75h1.75V4h7v1.75h1.75V7.5h-3.5V5.75h-3.5V7.5H76.5v5.25h1.75v1.75h3.5v-1.75h3.5v1.75H83.5v1.75h-7Zm15.75 0V5.75h-3.5V4h10.5v1.75h-3.5v10.5h-3.5Zm8.75 0V7.5h1.75V5.75h1.75V4h5.25v1.75h1.75V7.5h1.75v8.75h-3.5v-3.5h-5.25v3.5H101Zm3.5-5.25h5.25V7.5H108V5.75h-1.75V7.5h-1.75V11Zm10.5 5.25V4h10.5v1.75h1.75v3.5h-1.75V11h1.75v3.5h-1.75v1.75H115Zm3.5-7h5.25v-3.5h-5.25v3.5Zm0 5.25h5.25V11h-5.25v3.5Zm10.5 1.75V4h3.5v3.5h7v1.75h1.75v5.25h-1.75v1.75H129Zm3.5-1.75h5.25V9.25h-5.25v5.25Zm15.75 1.75V5.75h-3.5V4h10.5v1.75h-3.5v10.5h-3.5Zm8.75 0V4h12.25v1.75h-8.75v3.5h7V11h-7v3.5h8.75v1.75H157ZM59 39v-3.5h1.75V32h1.75v-7h8.75v10.5H73V39h-3.5v-1.75h-7V39H59Zm5.25-3.5h3.5v-8.75h-3.5v8.75ZM73 37.25V25h3.5v7h1.75v-1.75H80V28.5h1.75V25h3.5v12.25h-3.5V32H80v1.75h-1.75v1.75H76.5v1.75H73Zm17.5 0V35.5h-1.75v-1.75H87V28.5h1.75v-1.75h1.75V25h7v1.75h1.75v1.75h-3.5v-1.75h-3.5v1.75H90.5v5.25h1.75v1.75h3.5v-1.75h3.5v1.75H97.5v1.75h-7Zm15.75-8.75H108v1.75h1.75V32h1.75v3.5h1.75v1.75h-3.5V35.5H108V32h-3.5v5.25H101V25h3.5v5.25h1.75V28.5Zm7-3.5v1.75h-1.75v1.75H108v-1.75h1.75V25h3.5ZM115 37.25V25h12.25v1.75h-8.75v3.5h7V32h-7v3.5h8.75v1.75H115Zm19.25 0v-10.5h-3.5V25h10.5v1.75h-3.5v10.5h-3.5Zm10.5 0V35.5H143v-1.75h3.5v1.75h5.25V32h-7v-1.75H143V25h3.5v5.25h5.25V25h3.5v10.5h-1.75v1.75h-8.75Zm14 1.75v-1.75h1.75v-3.5h3.5v3.5h-1.75V39h-3.5Zm35-1.75V32h-7v-1.75H185V25h3.5v5.25h5.25V25h3.5v12.25h-3.5Zm10.5 0v-10.5h-3.5V25h10.5v1.75h-3.5v10.5h-3.5Zm10.5 0V35.5H213v-8.75h1.75V25h8.75v1.75h1.75v8.75h-1.75v1.75h-8.75Zm1.75-1.75h5.25v-8.75h-5.25v8.75Zm10.5 1.75V25h10.5v1.75h-7v3.5h7V32h1.75v3.5h-1.75v1.75H227Zm3.5-1.75h5.25V32h-5.25v3.5Zm10.5 1.75V25h3.5v3.5h3.5v8.75h-7Zm8.75 0V25h3.5v12.25h-3.5Zm-5.25-1.75h1.75v-5.25h-1.75v5.25ZM59 58.25V46h12.25v12.25h-3.5v-10.5H62.5v10.5H59Zm14 0V46h10.5v1.75h1.75V53H83.5v1.75h-7v3.5H73ZM76.5 53h5.25v-5.25H76.5V53Zm12.25 5.25V56.5H87v-8.75h1.75V46h8.75v1.75h1.75v8.75H97.5v1.75h-8.75Zm1.75-1.75h5.25v-8.75H90.5v8.75ZM101 60v-3.5h1.75V53h1.75v-7h8.75v10.5H115V60h-3.5v-1.75h-7V60H101Zm5.25-3.5h3.5v-8.75h-3.5v8.75Zm10.5 1.75V56.5H115v-8.75h1.75V46h8.75v1.75h1.75v8.75h-1.75v1.75h-8.75Zm1.75-1.75h5.25v-8.75h-5.25v8.75Zm10.5 1.75v-3.5h1.75V53h1.75v-7h8.75v12.25h-3.5v-10.5h-3.5v8.75h-1.75v1.75H129ZM146.5 46v5.25h-1.75V49.5H143V46h3.5Zm3.5 5.25h1.75V53H150v5.25h-1.75V53h-1.75v-1.75h1.75V46H150v5.25Zm5.25-5.25v3.5h-1.75v1.75h-1.75V46h3.5Zm-10.5 7h1.75v5.25H143v-3.5h1.75V53Zm7 5.25V53h1.75v1.75h1.75v3.5h-3.5Zm5.25 0V46h3.5v7h1.75v-1.75H164V49.5h1.75V46h3.5v12.25h-3.5V53H164v1.75h-1.75v1.75h-1.75v1.75H157Zm19.25 0v-10.5h-3.5V46h10.5v1.75h-3.5v10.5h-3.5Zm8.75 0V46h3.5v3.5h7v1.75h1.75v5.25h-1.75v1.75H185Zm3.5-1.75h5.25v-5.25h-5.25v5.25ZM0 12h3v3H0zM0 15h3v3H0zM0 18h3v3H0zM0 21h3v3H0zM0 24h3v3H0zM0 27h3v3H0zM0 30h3v3H0zM0 33h3v3H0zM0 36h3v3H0zM0 39h3v3H0zM0 42h3v3H0zM0 45h3v3H0zM0 48h3v3H0zM33 12v3h-3v-3z"/><path fill="#000" d="M30.003 12v3h-3v-3zM27 12v3h-3v-3zM24 12v3h-3v-3zM20.999 12v3h-3v-3z"/><path fill="#000" d="M18 12v3h-3v-3zM14.999 12v3h-3v-3z"/><path fill="#000" d="M12 12v3H9v-3zM8.996 12v3h-3v-3z"/><path fill="#000" d="M6 12v3H3v-3zM36 15v3h-3v-3zM8.996 18v3h-3v-3zM8.996 15v3h-3v-3zM8.996 21v3h-3v-3zM30.003 18v3h-3v-3zM30.003 15v3h-3v-3zM30.003 21v3h-3v-3zM24 18v3h-3v-3zM24 15v3h-3v-3zM24 21v3h-3v-3zM30.003 24v3h-3v-3zM27 24v3h-3v-3zM24 24v3h-3v-3zM20.999 24v3h-3v-3z"/><path fill="#000" d="M18 24v3h-3v-3zM14.999 24v3h-3v-3z"/><path fill="#000" d="M12 24v3H9v-3zM8.996 24v3h-3v-3zM33 33v3h-3v-3z"/><path fill="#000" d="M30.003 33v3h-3v-3zM27 33v3h-3v-3zM24 33v3h-3v-3zM20.999 33v3h-3v-3z"/><path fill="#000" d="M18 33v3h-3v-3zM14.999 33v3h-3v-3z"/><path fill="#000" d="M12 33v3H9v-3zM8.996 33v3h-3v-3zM33 36v3h-3v-3zM8.996 36v3h-3v-3zM33 39v3h-3v-3zM8.996 39v3h-3v-3zM33 42v3h-3v-3zM8.996 42v3h-3v-3zM8.996 45v3h-3v-3zM33 45v3h-3v-3zM36 48v3h-3v-3zM33 48v3h-3v-3z"/><path fill="#000" d="M30.003 48v3h-3v-3zM27 48v3h-3v-3zM24 48v3h-3v-3zM20.999 48v3h-3v-3z"/><path fill="#000" d="M18 48v3h-3v-3zM14.999 48v3h-3v-3z"/><path fill="#000" d="M12 48v3H9v-3zM8.996 48v3h-3v-3z"/><path fill="#000" d="M6 48v3H3v-3zM39 51h-3v-3h3zM39 48h-3v-3h3zM39 45h-3v-3h3zM39 42h-3v-3h3zM39 39h-3v-3h3zM39 36h-3v-3h3zM39 33h-3v-3h3zM39 30h-3v-3h3zM39 27h-3v-3h3zM39 24h-3v-3h3zM39 21h-3v-3h3z"/></svg>